# This file uses centimeters as units for non-parametric coordinates.

mtllib block.mtl
g default
v -5.000000 -5.000000 0.750000
v 5.000000 -5.000000 0.750000
v -5.000000 5.000000 0.750000
v 5.000000 5.000000 0.750000
v -5.000000 5.000000 -0.750000
v 5.000000 5.000000 -0.750000
v -5.000000 -5.000000 -0.750000
v 5.000000 -5.000000 -0.750000
vt 0.375000 0.000000
vt 0.625000 0.000000
vt 0.375000 0.250000
vt 0.625000 0.250000
vt 0.375000 0.500000
vt 0.625000 0.500000
vt 0.375000 0.750000
vt 0.625000 0.750000
vt 0.375000 1.000000
vt 0.625000 1.000000
vt 0.875000 0.000000
vt 0.875000 0.250000
vt 0.125000 0.000000
vt 0.125000 0.250000
vn 0.000000 0.000000 1.000000
vn 0.000000 0.000000 1.000000
vn 0.000000 0.000000 1.000000
vn 0.000000 1.000000 0.000000
vn 0.000000 1.000000 0.000000
vn 0.000000 1.000000 0.000000
vn 0.000000 0.000000 -1.000000
vn 0.000000 0.000000 -1.000000
vn 0.000000 0.000000 -1.000000
vn 0.000000 -1.000000 0.000000
vn 0.000000 -1.000000 0.000000
vn 0.000000 -1.000000 0.000000
vn 1.000000 0.000000 0.000000
vn 1.000000 0.000000 0.000000
vn 1.000000 0.000000 0.000000
vn -1.000000 0.000000 0.000000
vn -1.000000 0.000000 0.000000
vn -1.000000 0.000000 0.000000
vn 0.000000 0.000000 1.000000
vn 0.000000 1.000000 0.000000
vn 1.000000 0.000000 0.000000
vn 0.000000 0.000000 -1.000000
vn -1.000000 0.000000 0.000000
vn 0.000000 -1.000000 0.000000
s 1
g block Block
usemtl initialShadingGroup
f 3/3/1 2/2/2 4/4/3
s 2
f 3/3/4 4/4/5 5/5/6
s 3
f 5/5/7 6/6/8 8/8/9
s 4
f 7/7/10 8/8/11 1/9/12
s 5
f 2/2/13 8/11/14 6/12/15
s 6
f 7/13/16 3/3/17 5/14/18
s 1
f 1/1/19 2/2/2 3/3/1
s 2
f 5/5/6 4/4/5 6/6/20
s 5
f 2/2/13 6/12/15 4/4/21
s 3
f 5/5/7 8/8/9 7/7/22
s 6
f 7/13/16 1/1/23 3/3/17
s 4
f 1/9/12 8/8/11 2/10/24
